# xmcd CD database file
#
# Track frame offsets:
#	150
#	20890
#	39607
#	60045
#	83762
#	103112
#	123895
#	147765
#	168225
#	187387
#
# Disc length: 2792 seconds
#
# Revision: 3
# Processed by: cddbd v1.5PL3 Copyright (c) Steve Scherf et al.
# Submitted via: CDex 1.51
#
DISCID=820ae60a
DTITLE=UFO - Misdemeanor
DYEAR=1985
DGENRE=Hard Rock
TTITLE0=This Time
TTITLE1=One Heart
TTITLE2=Night Run
TTITLE3=The Only Ones
TTITLE4=Meanstreets
TTITLE5=Name Of Love
TTITLE6=Blue
TTITLE7=Dream The Dream
TTITLE8=Heaven's Gate
TTITLE9=Wreckless
EXTD=YEAR: 1985
EXTT0=
EXTT1=
EXTT2=
EXTT3=
EXTT4=
EXTT5=
EXTT6=
EXTT7=
EXTT8=
EXTT9=
PLAYORDER=
